<svg xmlns="http://www.w3.org/2000/svg" version="1.1" xmlns:xlink="http://www.w3.org/1999/xlink" xmlns:svgjs="http://svgjs.dev/svgjs" width="1440" height="560" preserveAspectRatio="none" viewBox="0 0 1440 560"><g mask="url(&quot;#SvgjsMask1003&quot;)" fill="none"><rect width="1440" height="560" x="0" y="0" fill="rgba(184, 100, 27, 1)"></rect><path d="M 0,85 C 57.6,96.8 172.8,143.8 288,144 C 403.2,144.2 460.8,64.6 576,86 C 691.2,107.4 748.8,260.8 864,251 C 979.2,241.2 1036.8,46.6 1152,37 C 1267.2,27.4 1382.4,169.8 1440,203L1440 560L0 560z" fill="rgba(230, 126, 34, 1)"></path><path d="M 0,476 C 96,446.6 288,331.2 480,329 C 672,326.8 768,471.2 960,465 C 1152,458.8 1344,331.4 1440,298L1440 560L0 560z" fill="rgba(237, 164, 100, 1)"></path></g><defs><mask id="SvgjsMask1003"><rect width="1440" height="560" fill="#ffffff"></rect></mask></defs></svg>